<svg height="85.333336" viewBox="0 0 85.333336 85.333336" width="85.333336" xmlns="http://www.w3.org/2000/svg"><g transform="matrix(.13333333 0 0 -.13333333 0 85.333333)"><path d="m640 320c0-176.73-143.27-320-320-320s-320 143.27-320 320 143.27 320 320 320 320-143.27 320-320" fill="#495672"/><g fill="#404a5f"><path d="m220 150h-80c-22.094 0-40 17.91-40 40v130c0 22.094 17.906 40 40 40h40c22.094 0 40-17.906 40-40z"/><path d="m380 150h-120v320c0 22.094 17.906 40 40 40h40c22.094 0 40-17.906 40-40z"/><path d="m500 150h-80v120c0 22.094 17.906 40 40 40h40c22.094 0 40-17.906 40-40v-80c0-22.09-17.906-40-40-40"/></g><path d="m180 380h-40c-22.094 0-40-17.906-40-40v-130c0-22.09 17.906-40 40-40h80v170c0 22.094-17.906 40-40 40" fill="#e1e3cc"/><path d="m340 530h-40c-22.094 0-40-17.906-40-40v-320h120v320c0 22.094-17.906 40-40 40" fill="#77caa9"/><path d="m500 330h-40c-22.094 0-40-17.906-40-40v-120h80c22.094 0 40 17.91 40 40v80c0 22.094-17.906 40-40 40" fill="#fff"/></g></svg>