<svg height="85.333336" viewBox="0 0 85.333336 85.333336" width="85.333336" xmlns="http://www.w3.org/2000/svg"><g transform="matrix(.13333333 0 0 -.13333333 0 85.333333)"><path d="m638.332 320c0-176.73-143.266-320-320-320-176.73 0-319.99997 143.27-319.99997 320s143.26997 320 319.99997 320c176.734 0 320-143.27 320-320" fill="#77caa9"/><path d="m370 100h-220c-16.57 0-30 13.43-30 30v340-230-90c0-16.57 13.43-30 30-30h90 130c16.57 0 30 13.43 30 30v-20c0-16.57-13.43-30-30-30" fill="#62a48d"/><path d="m370 520h-220c-16.57 0-30-13.43-30-30v-250-90c0-16.57 13.43-30 30-30h90 130c16.57 0 30 13.43 30 30v250 90c0 16.57-13.43 30-30 30" fill="#e1e3cc"/><g fill="#b7b7a7"><path d="m160 430h100v20h-100z"/><path d="m229.613 270h-69.613v20h76.004l-2.988-2.988z"/><path d="m266.004 320h-106.004v20h126.004z"/><path d="m316.004 370h-156.004v20h176.004z"/><path d="m219.613 220h-59.613v20h63.613z"/><path d="m360 170h-33.215l19.367 3.871 13.848 13.852zm-150.387 0h-49.613v20h53.613z"/><path d="m204.73 145.59 4.883 24.41h117.172l-74.914-14.984z"/></g><path d="m400 227.723v226.273l2.723 2.719 35.351 35.355c5.86 5.86 13.539 8.789 21.215 8.789 7.68 0 15.356-2.929 21.215-8.789l70.711-70.711c11.715-11.714 11.715-30.711 0-42.425l-35.356-35.356-7.074-7.07z" fill="#62a48d"/><path d="m360 187.723v2.277h-146.387l.547 2.73 5.453 27.27h140.387v20h-136.387l6 30h130.387v20h-123.996l30 30h93.996v20h-73.996l30 30h43.996v20h-23.996l59.644 59.645 4.352 4.351v-53.996-172.277z" fill="#b7b7a7"/><path d="m360 270h-130.387l3.403 17.012 2.988 2.988h123.996z" fill="#97978c"/><path d="m360 320h-93.996l20 20h73.996z" fill="#97978c"/><path d="m360 370h-43.996l20 20h23.996z" fill="#97978c"/><path d="m360 220h-140.387l4 20h136.387z" fill="#97978c"/><path d="m326.785 170h-117.172l4 20h146.387v-2.277l-13.848-13.852z" fill="#97978c"/><path d="m508.785 355.648c-11.715-11.714-30.711-11.714-42.426 0l-70.711 70.711c-11.714 11.715-11.714 30.711 0 42.426l42.426 42.43c11.719 11.715 30.711 11.715 42.43 0l70.711-70.711c11.715-11.719 11.715-30.715 0-42.43z" fill="#c84755"/><path d="m261.301 277.867-28.285 28.285 169.707 169.707 28.281-28.285z" fill="#e08e4c"/><path d="m303.727 207.156-56.571 56.571 183.848 183.847 56.57-56.57z" fill="#f3cc70"/><path d="m346.152 193.016-28.285 28.285 169.707 169.703 28.285-28.281z" fill="#e08e4c"/><path d="m204.73 164.73 47.141 9.43-37.711 37.711z" fill="#495672"/><path d="m233.016 306.152-18.856-94.281 37.711-37.711 94.281 18.856-14.14 14.14v28.285h-56.571v56.567h-28.285z" fill="#fff"/></g></svg>